<?xml version="1.0" standalone="no"?>
<!DOCTYPE svg PUBLIC "-//W3C//DTD SVG 20010904//EN"
 "http://www.w3.org/TR/2001/REC-SVG-20010904/DTD/svg10.dtd">
<svg version="1.0" xmlns="http://www.w3.org/2000/svg"
 width="500.000000pt" height="500.000000pt" viewBox="0 0 500.000000 500.000000"
 preserveAspectRatio="xMidYMid meet">
<metadata>
Created by potrace 1.11, written by Peter Selinger 2001-2013
</metadata>
<g transform="translate(0.000000,500.000000) scale(0.100000,-0.100000)"
fill="#000000" stroke="none">
<path d="M2320 4804 c-19 -2 -73 -9 -120 -15 -873 -107 -1628 -737 -1899
-1583 -79 -246 -105 -424 -105 -706 0 -282 26 -460 105 -706 225 -704 788
-1267 1493 -1493 246 -79 424 -105 706 -105 282 0 460 26 706 105 706 226
1267 787 1493 1493 79 246 105 424 105 706 0 347 -51 605 -181 910 -314 734
-984 1251 -1783 1375 -100 15 -445 28 -520 19z m305 -105 c273 -32 485 -119
618 -255 136 -138 185 -333 118 -470 -95 -194 -303 -322 -621 -381 l-44 -8
112 -28 c191 -47 335 -121 435 -223 134 -135 185 -332 121 -465 -75 -157 -223
-273 -439 -343 -44 -14 -87 -26 -97 -26 -9 0 -29 -5 -45 -11 -27 -11 -25 -12
47 -31 284 -74 462 -212 535 -413 26 -73 35 -197 16 -233 -6 -9 -20 -39 -33
-66 -70 -149 -309 -304 -523 -340 -59 -10 -76 -23 -39 -31 63 -13 222 -69 278
-98 100 -52 207 -147 257 -227 9 -14 28 -57 42 -95 39 -101 38 -199 -2 -281
-58 -119 -162 -215 -304 -283 -220 -104 -462 -134 -737 -91 -191 30 -312 69
-431 140 -136 80 -216 176 -263 311 -40 116 -36 174 20 297 25 53 142 170 213
212 108 64 289 130 358 130 45 0 14 16 -87 44 -118 33 -236 89 -316 149 -129
98 -213 254 -214 395 0 107 69 232 177 317 110 87 277 164 393 181 81 12 76
20 -31 49 -202 55 -376 166 -454 290 -50 79 -85 181 -85 250 0 232 265 455
615 516 68 12 96 29 48 29 -51 0 -217 50 -303 92 -183 88 -278 188 -334 350
-30 87 -33 163 -9 228 81 216 323 372 653 419 131 19 192 19 355 0z"/>
<path d="M2320 4569 c-50 -22 -124 -89 -147 -133 -21 -41 -43 -116 -43 -152 0
-42 35 -217 59 -290 63 -198 169 -299 325 -311 141 -11 261 58 323 185 37 76
37 166 -1 312 -72 279 -200 410 -399 410 -51 0 -85 -6 -117 -21z"/>
<path d="M2320 3460 c-51 -24 -124 -90 -147 -134 -21 -41 -43 -116 -43 -152 0
-40 36 -224 57 -289 43 -137 114 -234 208 -283 44 -23 62 -26 145 -27 79 0
103 4 140 22 62 31 125 95 157 162 37 75 37 166 -1 311 -51 201 -138 330 -254
383 -70 31 -202 35 -262 7z"/>
<path d="M2326 2365 c-140 -57 -214 -198 -187 -358 30 -183 71 -304 129 -390
53 -76 118 -117 221 -138 174 -36 352 97 377 280 11 82 -48 322 -103 421 -60
109 -132 168 -235 196 -76 20 -135 17 -202 -11z"/>
<path d="M2304 1261 c-82 -41 -130 -102 -160 -199 -18 -62 -18 -91 6 -210 50
-250 122 -377 246 -438 165 -80 360 -12 441 154 37 76 37 167 0 310 -52 199
-126 315 -239 377 -45 25 -67 30 -143 33 -84 3 -94 2 -151 -27z"/>
</g>
</svg>
